SplineFontDB: 3.2
FontName: InupiaqNumbers
FullName: InupiaqNumbers
FamilyName: InupiaqNumbers
Weight: Regular
Copyright: Copyright (c) 2020, Nathan
UComments: "2020-1-1: Created with FontForge (http://fontforge.org)"
Version: 001.000
ItalicAngle: 0
UnderlinePosition: -120.029
UnderlineWidth: 60.0146
Ascent: 1000
Descent: 205
InvalidEm: 0
LayerCount: 2
Layer: 0 0 "Back" 1
Layer: 1 0 "Fore" 0
XUID: [1021 498 -2101142793 9498728]
OS2Version: 0
OS2_WeightWidthSlopeOnly: 0
OS2_UseTypoMetrics: 1
CreationTime: 1577860449
ModificationTime: 1577862508
OS2TypoAscent: 0
OS2TypoAOffset: 1
OS2TypoDescent: 0
OS2TypoDOffset: 1
OS2TypoLinegap: 0
OS2WinAscent: 0
OS2WinAOffset: 1
OS2WinDescent: 0
OS2WinDOffset: 1
HheadAscent: 0
HheadAOffset: 1
HheadDescent: 0
HheadDOffset: 1
OS2Vendor: 'PfEd'
MarkAttachClasses: 1
DEI: 91125
Encoding: UnicodeFull
UnicodeInterp: none
NameList: AGL For New Fonts
DisplaySize: -48
AntiAlias: 1
FitToEm: 0
WinInfo: 58558 38 14
BeginPrivate: 0
EndPrivate
BeginChars: 1114112 20

StartChar: uniE5A0
Encoding: 58784 58784 0
Width: 700
VWidth: 1024
Flags: HW
HStem: 100 0 700 0 800 0 900 0
VStem: 100 0 600 0
LayerCount: 2
Fore
SplineSet
75 900 m 0
 75 906 77 913 82 918 c 0
 87 923 94 925 100 925 c 0
 109 925 117 920 121 913 c 2
 621 113 l 2
 624 109 625 105 625 100 c 0
 625 94 623 87 618 82 c 0
 613 77 606 75 600 75 c 0
 591 75 583 80 579 87 c 2
 79 887 l 2
 76 891 75 895 75 900 c 0
EndSplineSet
EndChar

StartChar: uniE5A1
Encoding: 58785 58785 1
Width: 700
VWidth: 1024
Flags: HW
HStem: 100 0 700 0 800 0 900 0
VStem: 100 0 225 0 267 0 350 0 433 0 475 0 600 0
LayerCount: 2
Fore
SplineSet
75 900 m 4
 75 906 77 913 82 918 c 4
 87 923 94 925 100 925 c 4
 111 925 121 917 124 907 c 6
 350 184 l 5
 576 907 l 6
 579 917 589 925 600 925 c 4
 606 925 613 923 618 918 c 4
 623 913 625 906 625 900 c 4
 625 897 625 895 624 893 c 6
 374 93 l 6
 371 83 361 75 350 75 c 4
 339 75 329 83 326 93 c 6
 76 893 l 6
 75 895 75 897 75 900 c 4
EndSplineSet
EndChar

StartChar: uniE5A2
Encoding: 58786 58786 2
Width: 700
VWidth: 1024
Flags: HW
HStem: 100 0 700 0 800 0 900 0
VStem: 100 0 225 0 267 0 350 0 433 0 475 0 600 0
LayerCount: 2
Fore
SplineSet
75 900 m 0
 75 906 77 913 82 918 c 0
 87 923 94 925 100 925 c 0
 112 925 122 916 124 905 c 2
 267 223 l 1
 409 905 l 2
 411 916 421 925 433 925 c 0
 445 925 455 916 457 905 c 2
 624 105 l 2
 624 103 625 102 625 100 c 0
 625 94 623 87 618 82 c 0
 613 77 606 75 600 75 c 0
 588 75 578 84 576 95 c 2
 433 777 l 1
 291 95 l 2
 289 84 279 75 267 75 c 0
 255 75 245 84 243 95 c 2
 76 895 l 2
 76 897 75 898 75 900 c 0
EndSplineSet
EndChar

StartChar: uniE5A3
Encoding: 58787 58787 3
Width: 700
VWidth: 1024
Flags: HW
HStem: 100 0 700 0 800 0 900 0
VStem: 100 0 225 0 267 0 350 0 433 0 475 0 600 0
LayerCount: 2
Fore
SplineSet
75 900 m 4
 75 906 77 913 82 918 c 4
 87 923 94 925 100 925 c 4
 112 925 123 915 125 904 c 6
 225 262 l 5
 325 904 l 6
 327 915 338 925 350 925 c 4
 362 925 373 915 375 904 c 6
 475 262 l 5
 575 904 l 6
 577 915 588 925 600 925 c 4
 606 925 613 923 618 918 c 4
 623 913 625 906 625 900 c 4
 625 899 625 897 625 896 c 6
 500 96 l 6
 498 85 487 75 475 75 c 4
 463 75 452 85 450 96 c 6
 350 738 l 5
 250 96 l 6
 248 85 237 75 225 75 c 4
 213 75 202 85 200 96 c 6
 75 896 l 6
 75 897 75 899 75 900 c 4
EndSplineSet
EndChar

StartChar: uniE5A4
Encoding: 58788 58788 4
Width: 700
VWidth: 1024
Flags: HW
HStem: 100 0 367 0 500 0 633 0 900 0
VStem: 100 0 225 0 267 0 350 0 433 0 475 0 600 0
LayerCount: 2
Fore
SplineSet
600 925 m 0
 606 925 613 923 618 918 c 0
 623 913 625 906 625 900 c 0
 625 895 624 891 621 887 c 2
 121 87 l 2
 117 80 109 75 100 75 c 0
 94 75 87 77 82 82 c 0
 77 87 75 94 75 100 c 0
 75 105 76 109 79 113 c 2
 579 913 l 2
 583 920 591 925 600 925 c 0
EndSplineSet
EndChar

StartChar: uniE5A5
Encoding: 58789 58789 5
Width: 700
VWidth: 1024
Flags: HW
HStem: 100 0 600 0 700 0 800 0 900 0
VStem: 100 0 225 0 267 0 350 0 433 0 475 0 600 0
LayerCount: 2
Fore
SplineSet
600 925 m 4
 606 925 613 923 618 918 c 4
 623 913 625 906 625 900 c 4
 625 888 616 877 605 875 c 6
 143 783 l 5
 620 115 l 6
 623 111 625 105 625 100 c 4
 625 94 623 87 618 82 c 4
 613 77 606 75 600 75 c 4
 592 75 584 79 580 85 c 6
 80 785 l 6
 77 789 75 795 75 800 c 4
 75 812 84 823 95 825 c 6
 595 925 l 6
 597 925 598 925 600 925 c 4
EndSplineSet
EndChar

StartChar: uniE5A6
Encoding: 58790 58790 6
Width: 700
VWidth: 1024
Flags: HW
HStem: 100 0 600 0 700 0 800 0 900 0
VStem: 100 0 225 0 267 0 350 0 433 0 475 0 600 0
LayerCount: 2
Fore
SplineSet
600 925 m 4
 606 925 613 923 618 918 c 4
 623 913 625 906 625 900 c 4
 625 888 616 877 605 875 c 6
 133 781 l 5
 350 174 l 5
 576 808 l 6
 579 817 589 825 600 825 c 4
 606 825 613 823 618 818 c 4
 623 813 625 806 625 800 c 4
 625 797 625 795 624 792 c 6
 374 92 l 6
 371 83 361 75 350 75 c 4
 339 75 329 83 326 92 c 6
 76 792 l 6
 75 795 75 797 75 800 c 4
 75 812 84 823 95 825 c 6
 595 925 l 6
 597 925 598 925 600 925 c 4
EndSplineSet
EndChar

StartChar: uniE5A7
Encoding: 58791 58791 7
Width: 700
VWidth: 1024
Flags: HW
HStem: 100 0 600 0 700 0 800 0 900 0
VStem: 100 0 225 0 267 0 350 0 433 0 475 0 600 0
LayerCount: 2
Fore
SplineSet
600 925 m 4
 606 925 613 923 618 918 c 4
 623 913 625 906 625 900 c 4
 625 888 616 877 605 875 c 6
 130 781 l 5
 267 208 l 5
 409 806 l 6
 411 816 421 825 433 825 c 4
 445 825 455 816 457 806 c 6
 624 106 l 6
 624 104 625 102 625 100 c 4
 625 94 623 87 618 82 c 4
 613 77 606 75 600 75 c 4
 588 75 578 84 576 94 c 6
 433 692 l 5
 291 94 l 6
 289 84 279 75 267 75 c 4
 255 75 245 84 243 94 c 6
 76 794 l 6
 76 796 75 798 75 800 c 4
 75 812 84 823 95 825 c 6
 595 925 l 6
 597 925 598 925 600 925 c 4
EndSplineSet
EndChar

StartChar: uniE5A8
Encoding: 58792 58792 8
Width: 700
VWidth: 1024
Flags: HW
HStem: 100 0 600 0 700 0 800 0 900 0
VStem: 100 0 225 0 267 0 350 0 433 0 475 0 600 0
LayerCount: 2
Fore
SplineSet
225 242 m 5
 325 804 l 6
 326 812 332 819 339 822 c 5
 129 780 l 5
 225 242 l 5
600 925 m 4
 606 925 613 923 618 918 c 4
 623 913 625 906 625 900 c 4
 625 888 616 877 605 875 c 6
 352 825 l 5
 363 824 373 815 375 804 c 6
 475 242 l 5
 575 804 l 6
 577 815 588 825 600 825 c 4
 606 825 613 823 618 818 c 4
 623 813 625 806 625 800 c 4
 625 799 625 797 625 796 c 6
 500 96 l 6
 498 85 487 75 475 75 c 4
 463 75 452 85 450 96 c 6
 350 658 l 5
 250 96 l 6
 248 85 237 75 225 75 c 4
 213 75 202 85 200 96 c 6
 75 796 l 6
 75 797 75 799 75 800 c 4
 75 812 84 823 95 825 c 6
 595 925 l 6
 597 925 598 925 600 925 c 4
EndSplineSet
EndChar

StartChar: uniE5A9
Encoding: 58793 58793 9
Width: 700
VWidth: 1024
Flags: HW
HStem: 100 0 367 0 500 0 633 0 900 0
VStem: 100 0 225 0 267 0 350 0 433 0 475 0 600 0
LayerCount: 2
Fore
SplineSet
75 900 m 0
 75 906 77 913 82 918 c 0
 87 923 94 925 100 925 c 0
 106 925 111 924 116 920 c 2
 616 520 l 2
 622 515 625 507 625 500 c 0
 625 493 622 485 616 480 c 2
 116 80 l 2
 111 76 106 75 100 75 c 0
 94 75 87 77 82 82 c 0
 77 87 75 94 75 100 c 0
 75 107 78 115 84 120 c 2
 560 500 l 1
 84 880 l 2
 78 885 75 893 75 900 c 0
EndSplineSet
EndChar

StartChar: uniE5AA
Encoding: 58794 58794 10
Width: 700
VWidth: 1024
Flags: HW
HStem: 100 0 600 0 700 0 800 0 900 0
VStem: 100 0 225 0 267 0 350 0 433 0 475 0 600 0
LayerCount: 2
Fore
SplineSet
75 900 m 0
 75 906 77 913 82 918 c 0
 87 923 94 925 100 925 c 0
 102 925 103 925 105 925 c 2
 605 825 l 2
 616 823 625 812 625 800 c 0
 625 788 616 777 605 775 c 2
 146 684 l 1
 619 116 l 2
 623 111 625 106 625 100 c 0
 625 94 623 87 618 82 c 0
 613 77 606 75 600 75 c 0
 593 75 586 78 581 84 c 2
 81 684 l 2
 77 689 75 694 75 700 c 0
 75 712 84 723 95 725 c 2
 473 800 l 1
 95 875 l 2
 84 877 75 888 75 900 c 0
EndSplineSet
EndChar

StartChar: uniE5AB
Encoding: 58795 58795 11
Width: 700
VWidth: 1024
Flags: HW
HStem: 100 0 600 0 700 0 800 0 900 0
VStem: 100 0 225 0 267 0 350 0 433 0 475 0 600 0
LayerCount: 2
Fore
SplineSet
75 900 m 4
 75 906 77 913 82 918 c 4
 87 923 94 925 100 925 c 4
 102 925 103 925 105 925 c 6
 605 825 l 6
 616 823 625 812 625 800 c 4
 625 788 616 777 605 775 c 6
 135 681 l 5
 350 165 l 5
 577 710 l 6
 581 719 590 725 600 725 c 4
 606 725 613 723 618 718 c 4
 623 713 625 706 625 700 c 4
 625 697 624 693 623 690 c 6
 373 90 l 6
 369 81 360 75 350 75 c 4
 340 75 331 81 327 90 c 6
 77 690 l 6
 76 693 75 697 75 700 c 4
 75 712 84 723 95 725 c 6
 473 800 l 5
 95 875 l 6
 84 877 75 888 75 900 c 4
EndSplineSet
EndChar

StartChar: uniE5AC
Encoding: 58796 58796 12
Width: 700
VWidth: 1024
Flags: HW
HStem: 100 0 600 0 700 0 800 0 900 0
VStem: 100 0 225 0 267 0 350 0 433 0 475 0 600 0
LayerCount: 2
Fore
SplineSet
75 900 m 4
 75 906 77 913 82 918 c 4
 87 923 94 925 100 925 c 4
 102 925 103 925 105 925 c 6
 605 825 l 6
 616 823 625 812 625 800 c 4
 625 788 616 777 605 775 c 6
 131 681 l 5
 267 193 l 5
 409 707 l 6
 412 717 422 725 433 725 c 4
 444 725 454 717 457 707 c 6
 624 107 l 6
 625 105 625 102 625 100 c 4
 625 94 623 87 618 82 c 4
 613 77 606 75 600 75 c 4
 589 75 579 83 576 93 c 6
 433 607 l 5
 291 93 l 6
 288 83 278 75 267 75 c 4
 256 75 246 83 243 93 c 6
 76 693 l 6
 75 695 75 698 75 700 c 4
 75 712 84 723 95 725 c 6
 473 800 l 5
 95 875 l 6
 84 877 75 888 75 900 c 4
EndSplineSet
EndChar

StartChar: uniE5AD
Encoding: 58797 58797 13
Width: 700
VWidth: 1024
Flags: HW
HStem: 100 0 600 0 700 0 800 0 900 0
VStem: 100 0 225 0 267 0 350 0 433 0 475 0 600 0
LayerCount: 2
Fore
SplineSet
225 223 m 5
 326 705 l 6
 328 712 333 719 339 722 c 5
 130 680 l 5
 225 223 l 5
75 900 m 4
 75 906 77 913 82 918 c 4
 87 923 94 925 100 925 c 4
 102 925 103 925 105 925 c 6
 605 825 l 6
 616 823 625 812 625 800 c 4
 625 788 616 777 605 775 c 6
 352 725 l 5
 363 724 372 715 374 705 c 6
 475 223 l 5
 576 705 l 6
 578 716 588 725 600 725 c 4
 606 725 613 723 618 718 c 4
 623 713 625 706 625 700 c 4
 625 698 624 697 624 695 c 6
 499 95 l 6
 497 84 487 75 475 75 c 4
 463 75 453 84 451 95 c 6
 350 577 l 5
 249 95 l 6
 247 84 237 75 225 75 c 4
 213 75 203 84 201 95 c 6
 76 695 l 6
 76 697 75 698 75 700 c 4
 75 712 84 723 95 725 c 6
 473 800 l 5
 95 875 l 6
 84 877 75 888 75 900 c 4
EndSplineSet
EndChar

StartChar: uniE5AE
Encoding: 58798 58798 14
Width: 700
VWidth: 1024
Flags: HW
HStem: 100 0 367 0 500 0 633 0 900 0
VStem: 100 0 225 0 267 0 350 0 433 0 475 0 600 0
LayerCount: 2
Fore
SplineSet
600 925 m 0
 606 925 613 923 618 918 c 0
 623 913 625 906 625 900 c 0
 625 891 619 882 612 878 c 2
 153 633 l 1
 612 389 l 2
 619 385 625 376 625 367 c 0
 625 358 619 349 612 345 c 2
 112 78 l 2
 108 76 104 75 100 75 c 0
 94 75 87 77 82 82 c 0
 77 87 75 94 75 100 c 0
 75 109 81 118 88 122 c 2
 547 367 l 1
 88 611 l 2
 81 615 75 624 75 633 c 0
 75 642 81 651 88 655 c 2
 588 922 l 2
 592 924 596 925 600 925 c 0
EndSplineSet
EndChar

StartChar: uniE5AF
Encoding: 58799 58799 15
Width: 700
VWidth: 1024
Flags: HW
HStem: 100 0 600 0 700 0 800 0 900 0
VStem: 100 0 225 0 267 0 350 0 433 0 475 0 600 0
LayerCount: 2
Fore
SplineSet
600 925 m 0
 606 925 613 923 618 918 c 0
 623 913 625 906 625 900 c 0
 625 888 616 877 605 875 c 2
 227 800 l 1
 605 725 l 2
 616 723 625 712 625 700 c 0
 625 688 616 677 605 675 c 2
 151 585 l 1
 618 118 l 2
 623 113 625 106 625 100 c 0
 625 94 623 87 618 82 c 0
 613 77 606 75 600 75 c 0
 594 75 587 77 582 82 c 2
 82 582 l 2
 77 587 75 594 75 600 c 0
 75 612 84 623 95 625 c 2
 473 700 l 1
 95 775 l 2
 84 777 75 788 75 800 c 0
 75 812 84 823 95 825 c 2
 595 925 l 2
 597 925 598 925 600 925 c 0
EndSplineSet
EndChar

StartChar: uniE5B0
Encoding: 58800 58800 16
Width: 700
VWidth: 1024
Flags: HW
HStem: 100 0 600 0 700 0 800 0 900 0
VStem: 100 0 225 0 267 0 350 0 433 0 475 0 600 0
LayerCount: 2
Fore
SplineSet
600 925 m 4
 606 925 613 923 618 918 c 4
 623 913 625 906 625 900 c 4
 625 888 616 877 605 875 c 6
 227 800 l 5
 605 725 l 6
 616 723 625 712 625 700 c 4
 625 688 616 677 605 675 c 6
 137 582 l 5
 350 156 l 5
 578 611 l 6
 582 619 590 625 600 625 c 4
 606 625 613 623 618 618 c 4
 623 613 625 606 625 600 c 4
 625 596 624 593 622 589 c 6
 372 89 l 6
 368 81 360 75 350 75 c 4
 340 75 332 81 328 89 c 6
 78 589 l 6
 76 593 75 596 75 600 c 4
 75 612 84 623 95 625 c 6
 473 700 l 5
 95 775 l 6
 84 777 75 788 75 800 c 4
 75 812 84 823 95 825 c 6
 595 925 l 6
 597 925 598 925 600 925 c 4
EndSplineSet
EndChar

StartChar: uniE5B1
Encoding: 58801 58801 17
Width: 700
VWidth: 1024
Flags: HW
HStem: 100 0 600 0 700 0 800 0 900 0
VStem: 100 0 225 0 267 0 350 0 433 0 475 0 600 0
LayerCount: 2
Fore
SplineSet
600 925 m 4
 606 925 613 923 618 918 c 4
 623 913 625 906 625 900 c 4
 625 888 616 877 605 875 c 6
 227 800 l 5
 605 725 l 6
 616 723 625 712 625 700 c 4
 625 688 616 677 605 675 c 6
 133 581 l 5
 267 179 l 5
 409 608 l 6
 412 617 422 625 433 625 c 4
 444 625 454 617 457 608 c 6
 624 108 l 6
 625 105 625 103 625 100 c 4
 625 94 623 87 618 82 c 4
 613 77 606 75 600 75 c 4
 589 75 579 83 576 92 c 6
 433 521 l 5
 291 92 l 6
 288 83 278 75 267 75 c 4
 256 75 246 83 243 92 c 6
 76 592 l 6
 75 595 75 597 75 600 c 4
 75 612 84 623 95 625 c 6
 473 700 l 5
 95 775 l 6
 84 777 75 788 75 800 c 4
 75 812 84 823 95 825 c 6
 595 925 l 6
 597 925 598 925 600 925 c 4
EndSplineSet
EndChar

StartChar: uniE5B2
Encoding: 58802 58802 18
Width: 700
VWidth: 1024
Flags: HW
HStem: 100 0 600 0 700 0 800 0 900 0
VStem: 100 0 225 0 267 0 350 0 433 0 475 0 600 0
LayerCount: 2
Fore
SplineSet
225 203 m 5
 326 606 l 6
 328 613 333 619 339 622 c 5
 131 581 l 5
 225 203 l 5
600 925 m 4
 606 925 613 923 618 918 c 4
 623 913 625 906 625 900 c 4
 625 888 616 877 605 875 c 6
 227 800 l 5
 605 725 l 6
 616 723 625 712 625 700 c 4
 625 688 616 677 605 675 c 6
 352 625 l 5
 363 624 372 616 374 606 c 6
 475 203 l 5
 576 606 l 6
 579 616 588 625 600 625 c 4
 606 625 613 623 618 618 c 4
 623 613 625 606 625 600 c 4
 625 598 624 596 624 594 c 6
 499 94 l 6
 496 84 487 75 475 75 c 4
 463 75 454 84 451 94 c 6
 350 497 l 5
 249 94 l 6
 246 84 237 75 225 75 c 4
 213 75 204 84 201 94 c 6
 76 594 l 6
 76 596 75 598 75 600 c 4
 75 612 84 623 95 625 c 6
 473 700 l 5
 95 775 l 6
 84 777 75 788 75 800 c 4
 75 812 84 823 95 825 c 6
 595 925 l 6
 597 925 598 925 600 925 c 4
EndSplineSet
EndChar

StartChar: uniE5B3
Encoding: 58803 58803 19
Width: 700
VWidth: 1024
Flags: HW
HStem: 100 0 367 0 500 0 633 0 900 0
VStem: 101 0 226 0 268 0 351 0 434 0 476 0 601 0
LayerCount: 2
Fore
SplineSet
118 746 m 4
 112 746 107 746 101 746 c 4
 95 746 88 748 83 753 c 4
 78 758 76 765 76 771 c 4
 76 777 78 784 83 789 c 4
 92 798 102 796 118 796 c 4
 204 796 284 787 351 766 c 5
 418 787 498 796 584 796 c 4
 600 796 610 798 619 789 c 4
 624 784 626 777 626 771 c 4
 626 765 624 758 619 753 c 4
 614 748 607 746 601 746 c 4
 595 746 590 746 584 746 c 4
 529 746 476 743 428 734 c 5
 450 721 469 706 486 689 c 4
 532 643 559 580 559 499 c 4
 559 486 559 474 559 461 c 4
 559 363 549 280 496 227 c 4
 463 194 416 175 351 175 c 4
 286 175 239 194 206 227 c 4
 153 280 143 363 143 461 c 4
 143 474 143 486 143 499 c 4
 143 580 170 643 216 689 c 4
 233 706 252 721 274 734 c 5
 226 743 173 746 118 746 c 4
351 225 m 4
 406 225 439 240 461 262 c 4
 481 282 494 312 501 347 c 4
 508 383 509 424 509 465 c 4
 509 476 509 488 509 499 c 4
 509 569 487 618 451 654 c 4
 425 680 391 700 351 714 c 5
 311 700 277 680 251 654 c 4
 215 618 193 569 193 499 c 4
 193 488 193 476 193 465 c 4
 193 424 194 383 201 347 c 4
 208 312 221 282 241 262 c 4
 263 240 296 225 351 225 c 4
EndSplineSet
EndChar
